<svg width="253" height="428" xmlns="http://www.w3.org/2000/svg" xmlns:xlink="http://www.w3.org/1999/xlink"><defs><linearGradient x1=".546%" y1="45.069%" x2="-4.798%" y2="56.601%" id="linearGradient-1"><stop stop-color="#FE9B7C" offset="0%"/><stop stop-color="#D06868" offset="100%"/></linearGradient><linearGradient x1="53.995%" y1="137.646%" x2="99.739%" y2="82.43%" id="linearGradient-3"><stop stop-color="#4C416C" offset="0%"/><stop stop-color="#4F7995" offset="100%"/></linearGradient><linearGradient x1="32.845%" y1="-27.344%" x2="-9.857%" y2="59.147%" id="linearGradient-10"><stop stop-color="#5190A5" offset="0%"/><stop stop-color="#4E6586" offset="100%"/></linearGradient><linearGradient x1="46.831%" y1="4.998%" x2="-24.266%" y2="65.116%" id="linearGradient-11"><stop stop-color="#EFE8CD" offset="0%"/><stop stop-color="#D3CAAF" offset="100%"/></linearGradient><path d="M181.787 39.794c-15.918-8.77-11.227-32.339-11.227-32.339s.852-5.962-3.434-6.814c-4.301-.838-5.586-2.122-5.153 5.543.433 7.652-4.217 28.946 8.657 40.005 9.411 8.07 22.76 6.367 32.2 19.13 9.41 12.706-3.603 30.579-6.466 31.92-9.006 4.258-8.587 5.962-15.876 6.827-7.288.838-26.558-1.256-37.281 2.57-10.724 3.84-7.764 7.68-18.055 14.06-10.29 6.396-27.452 14.913-34.74 22.998-2.849 3.17-4.776 6.842-5.893 10.43-6.912 2.067-22.271 4.12-34.377 10.892-7.093 3.951-25.776 16.7-34.308 28.96-7.707 11.058-11.561 24.267-13.712 35.745C.81 236.856 0 250.596 0 259.114c0 8.378 1.229 15.066 2.709 23.29.67 3.673 1.284 10.04 1.284 14.131 0 4.105-1.284 5.097-1.284 7.96 0 2.848.894 3.727 1.592 4.425.684.699 0-2.15 0-2.904s1.019-2.75 1.326-2.108c.307.642-.042.056-.321 3.309-.28 3.253 2.444 9.411 2.444 6.619 0-2.793 0-6.619.642-8.28.642-1.676.684-.392.684 0 0 .39-.167 1.312.251 1.116.42-.181 1.16-.95.42-4.747-.74-3.77-1.188-3.77-1.453-5.39-.894-5.446-.88-8.196-1.41-11.897-.866-5.948-1.299-24.673-.88-31.082.656-9.774 3.17-10.89 4.287-12.762 1.76-2.988 3.505 18.013 11.17 36.584 6.507 15.75 15.458 15.75 18.893 19.143 3.435 3.407-2.988 18.306-.405 28.946 2.318 9.55-.838 15.75 0 18.292.865 2.569 11.17 5.543 18.892 5.53 7.722 0 17.175-2.137 17.16-5.544 0-8.937-3.434-7.233-4.3-12.763-.866-5.53 8.029-13.642 8.992-20.428 1.718-11.924 0-14.48-2.583-23.416-.167-.559-1.298-11.059-1.298-11.059s14.172 2.122 23.597-4.273c15.611-10.57 21.434-28.108 21.434-28.108s6.423 7.066 10.305 10.207c5.585 4.525 8.154 4.957 11.17 5.949 3.854 1.284 14.103 3.826 14.103 3.826s-5.096 5.962-8.099 8.098c-2.122 1.508-8.196 6.382-6.911 8.937 1.298 2.555 5.515 9.467 9.886 12.343 7.777 5.097 14.214 6.8 16.35 6.367 2.15-.418 4.664-14.48 7.666-17.035 3.002-2.555 8.63-11.072 8.197-15.317-.42-4.175-1.299-20.428-12.037-26.39-5.822-3.226-13.083-5.055-15.89-16.156-2.569-10.221-18.878-17.007-18.878-17.007 5.166-7.345 13.824-16.882 16.128-19.395 2.513 1.243 4.83 2.038 7.4 1.927 4.678-.224 3.253-5.334.559-12.344l.782 1.27s8.308-5.026 11.142-10.639c3.002-5.962 10.71-19.59 17.147-21.727 7.428-2.457 20.596-9.369 19.311-11.924-1.815-3.589-13.307-3.826-13.307-3.826s14.69-5.474 15.443-6.814c5.977-10.682 14.396-30.608 9.398-53.2-6.018-27.242-32.2-26.81-39.921-31.054Z" id="path-4"/><path d="M15.834 40.689C8.113 51.762 4.26 64.957 2.122 76.435.81 83.57 0 97.31 0 105.827c0 8.378 1.117 17.733 2.597 25.972 2.15 11.91 4.734 25.524 6.451 25.091.838-.209-.349-12.957-2.164-25.524-.88-5.976-1.299-24.701-.88-31.082.656-9.775 3.17-10.906 4.287-12.777 1.76-2.988 3.505 18.013 11.17 36.584 6.507 15.75 15.458 15.75 18.893 19.157 3.435 3.394-2.988 18.292-.42 28.932 2.333 9.551-.837 15.75.029 18.292.851 2.57 11.156 5.543 18.878 5.53 7.722 0 17.175-2.137 17.16-5.544 0-8.936-3.434-7.233-4.3-12.762-.866-5.53 8.029-13.642 8.992-20.428 1.718-11.925 0-14.48-2.583-23.417-.167-.558-1.298-11.059-1.298-11.059s14.158 2.123 23.597-4.272c15.611-10.57 21.434-28.108 21.434-28.108s6.423 7.065 10.305 10.207c5.585 4.524 8.154 4.957 11.17 5.948 3.854 1.285 14.103 3.826 14.103 3.826s-5.096 5.962-8.099 8.099c-2.122 1.508-8.196 6.38-6.911 8.936 1.298 2.555 5.515 9.467 9.886 12.344 7.777 5.096 14.214 6.8 16.35 6.367 2.15-.42 4.664-14.48 7.666-17.035 3.002-2.556 8.63-11.06 8.197-15.318-.42-4.175-1.299-20.428-12.037-26.39-5.822-3.212-13.083-5.055-15.89-16.156-2.569-10.22-18.878-17.007-18.878-17.007 6.004-8.517 16.714-20.023 16.714-20.023L86.823 0c-5.027 2.43-22.955 4.05-36.681 11.73-7.093 3.95-25.776 16.713-34.308 28.959Z" id="path-6"/><path d="M87.296 46.19c9.41 8.071 22.76 6.367 32.199 19.13 9.41 12.706-3.603 30.58-6.465 31.92-9.007 4.258-8.574 5.962-15.876 6.828-2.43.279-6.186.237-10.5.195-8.658-.098-19.619-.181-26.768 2.374-10.724 3.84-7.778 7.68-18.069 14.06-10.29 6.396-27.451 14.914-34.74 22.998-7.289 8.099-8.573 19.59-5.557 24.268 3.002 4.678 12.008 9.775 36.472 10.193 24.463.42 30.467 12.33 39.906 11.897 4.678-.223 3.254-5.32.559-12.343l.782 1.27s8.322-5.026 11.142-10.64c3.003-5.962 10.724-19.59 17.147-21.726 7.429-2.458 20.596-9.37 19.311-11.925-1.815-3.589-13.307-3.826-13.307-3.826s14.69-5.473 15.444-6.814c5.976-10.682 14.396-30.607 9.397-53.2-6.018-27.242-32.2-26.81-39.92-31.054C82.533 31.026 87.225 7.456 87.225 7.456s.852-5.962-3.435-6.814C82.283.35 81.15 0 80.328 0c-1.522 0-1.955 1.2-1.676 6.186.42 7.652-4.23 28.945 8.658 40.004h-.014Z" id="path-8"/><radialGradient cx="41.045%" cy="29.6%" fx="41.045%" fy="29.6%" r="55.116%" gradientTransform="matrix(0 1 -.23753 0 .48 -.114)" id="radialGradient-2"><stop stop-opacity=".5" offset="0%"/><stop stop-opacity=".01" offset="100%"/></radialGradient></defs><g id="backgrounds" stroke="none" stroke-width="1" fill="none" fill-rule="evenodd"><g id="pachyderm-website--copy-4" transform="translate(-1090 -73)"><g id="elephant" transform="matrix(-1 0 0 1 1342.187 73)"><g id="cube" transform="translate(114.736 371.533)"><path id="Path-Copy" fill="#D06868" d="m58.785.447-11.59 12.902v41.289l11.59-12.776z"/><path id="Path-Copy-2" fill="url('#linearGradient-1')" d="M58.785.586 15.443.628 0 13.391l47.196-.042L58.786.572z"/><path id="Path-Copy-3" fill="url('#radialGradient-2')" d="M58.785.586 15.443.628 0 13.391l47.196-.042L58.786.572z"/><path id="Path-Copy-4" fill="#A5597E" d="M47.196 13.223 0 13.265V54.68l47.196-.056v-41.4z"/></g><path d="M177.78 219.809c0-2.22-1.76-11.534 7.456-11.771 7.358-.196 22.718 2.387 35.885-.978 13.991-3.588 28.36-16.923 30.09-15.373 1.732 1.536-15.093 22.062-36.401 27.814-12.47 3.352-29.155 1.997-37.03.308-3.072-.657 1.535 1.982-9.607.014l9.606-.014Z" id="Path-Copy-5" fill="#C1BBA7"/><path d="M66.563 413.953s8.573 1.27 15.01 1.257c6.437 0 11.17-2.123 12.874-2.974 1.718-.852 2.57-6.815-1.717-9.789-2.821-1.955-.796-20.358-5.167-27.228-5.166-8.099 3.84-32.353 3.84-32.353l-29.602 17.035s6.465 33.624 6.898 36.598c.419 2.988-3.854 16.183-2.136 17.454Z" id="Path-Copy-6" fill="#4B2357"/><path d="M139.911 302.192s-2.653 12.287 2.695 25.971c5.334 13.67 17.454 18.068 17.79 24.492.139 2.862-1.397 5.948-2.305 10.751-1.145 6.004 2.877 11.841.308 16.756-2.235 4.329-31.71 3.044-28.136-3.924 3.588-6.981 4.594-16.672 4.733-18.375.14-1.69-18.11-20.666-16.7-32.52 1.397-11.841-6.507-15.08-6.507-15.08l28.136-8.071h-.014Z" id="Path-Copy-7" fill="#4B2A5C"/><path d="M181.787 118.506c-15.918-8.77-11.227-32.34-11.227-32.34s.852-5.961-3.434-6.813c-4.301-.838-5.586-2.123-5.153 5.543.433 7.652-4.217 28.946 8.657 40.005 9.411 8.07 22.76 6.367 32.2 19.13 9.41 12.706-3.603 30.579-6.466 31.92-9.006 4.258-8.587 5.962-15.876 6.827-7.288.838-26.558-1.256-37.281 2.57-10.724 3.84-7.764 7.68-18.055 14.06-10.29 6.396-27.452 14.913-34.74 22.998-2.849 3.17-4.776 6.842-5.893 10.43-6.912 2.067-22.271 4.12-34.377 10.892-7.093 3.951-25.776 16.7-34.308 28.96-7.707 11.058-11.561 24.267-13.712 35.745C.81 315.568 0 329.308 0 337.826c0 8.378 1.229 15.066 2.709 23.29.67 3.673 1.284 10.04 1.284 14.131 0 4.105-1.284 5.097-1.284 7.959 0 2.849.894 3.728 1.592 4.426.684.699 0-2.15 0-2.904s1.019-2.75 1.326-2.108c.307.642-.042.055-.321 3.309-.28 3.253 2.444 9.411 2.444 6.618 0-2.792 0-6.618.642-8.28.642-1.675.684-.39.684 0 0 .391-.167 1.313.251 1.117.42-.181 1.16-.95.42-4.747-.74-3.77-1.188-3.77-1.453-5.39-.894-5.446-.88-8.196-1.41-11.897-.866-5.948-1.299-24.673-.88-31.082.656-9.774 3.17-10.891 4.287-12.762 1.76-2.988 3.505 18.012 11.17 36.583 6.507 15.751 15.458 15.751 18.893 19.144 3.435 3.407-2.988 18.306-.405 28.946 2.318 9.55-.838 15.75 0 18.292.865 2.569 11.17 5.543 18.892 5.529 7.722 0 17.175-2.136 17.16-5.543 0-8.937-3.434-7.233-4.3-12.763-.866-5.53 8.029-13.642 8.992-20.428 1.718-11.925 0-14.48-2.583-23.416-.167-.559-1.298-11.06-1.298-11.06s14.172 2.123 23.597-4.272c15.611-10.57 21.434-28.108 21.434-28.108s6.423 7.066 10.305 10.207c5.585 4.524 8.154 4.957 11.17 5.949 3.854 1.284 14.103 3.826 14.103 3.826s-5.096 5.962-8.099 8.098c-2.122 1.508-8.196 6.381-6.911 8.937 1.298 2.555 5.515 9.467 9.886 12.343 7.777 5.097 14.214 6.8 16.35 6.367 2.15-.419 4.664-14.48 7.666-17.035 3.002-2.555 8.63-11.073 8.197-15.317-.42-4.175-1.299-20.429-12.037-26.39-5.822-3.226-13.083-5.055-15.89-16.156-2.569-10.221-18.878-17.007-18.878-17.007 5.166-7.345 13.824-16.882 16.128-19.395 2.513 1.242 4.83 2.038 7.4 1.927 4.678-.224 3.253-5.334.559-12.344l.782 1.27s8.308-5.026 11.142-10.64c3.002-5.961 10.71-19.59 17.147-21.726 7.428-2.457 20.596-9.37 19.311-11.924-1.815-3.589-13.307-3.826-13.307-3.826s14.69-5.474 15.443-6.814c5.977-10.682 14.396-30.608 9.398-53.2-6.018-27.242-32.2-26.81-39.921-31.054Z" id="Path-Copy-8" fill="url('#linearGradient-3')"/><g id="Clipped-Copy" transform="translate(0 78.712)"><mask id="mask-5" fill="#fff"><use xlink:href="#path-4"/></mask><g id="Group" mask="url('#mask-5')"><g id="Clipped"><g transform="translate(0 153.287)"><mask id="mask-7" fill="#fff"><use xlink:href="#path-6"/></mask><g id="Group" mask="url('#mask-7')" fill-rule="nonzero"><g id="Path"><path d="M14.13 124.72S18 84.295 37.31 81.74c19.283-2.54 22.369-2.415 30.747 4.86 10.304 8.936 6.395 13.013 8.657 13.013 2.276 0 13.851-7.4 11.673-21.014-2.108-13.181 12.26-27.005 42.797-25.762 30.552 1.242-35.09-8.979-35.09-8.979L33.01 68.545S15.415 91.53 14.996 108.983l-.865 15.75v-.014Z" fill="#4F6486" transform="translate(-11.422 -29.42)"/><path d="M119.748 155.382s-31.068-.195-30.858-4.188c.195-4.022 1.647-9.719.405-15.206-.252-1.104 14.102 2.15 22.508-4.65 16.686-13.517 1.243-25.748 1.243-25.748s19.088 10.179 20.442 15.178c2.43 8.992-13.74 34.628-13.74 34.628v-.014Z" fill="#4C3D6A" transform="translate(-11.422 -29.42)"/><path d="M13.796 160.982s.614-23.207.837-34.475c.42-20.861 3.63-34.63 11.13-45.548 6.422-9.356 31.388-1.257 40.758-13.642 19.283-25.553 49.332-16.198 49.332-16.198l54.917 11.869s-13.28 23.989-20.19 20.889a485.25 485.25 0 0 1-15.444-7.68s2.723 5.53 8.615 8.099c13.74 5.948 18.46 11.045 21.476 19.548 1.256 3.56 6.241 10.124 9.732 11.59 3.449 1.452 6.325 3.281 8.657 5.278.503.419-1.299 2.527-.852 2.96.391.377 3.84-1.564 4.19-1.173.404.419-2.193 3.575-1.844 4.008.35.418 3.728-1.55 4.035-1.117.433.6-3.35 2.778-2.988 3.379.266.419 3.798-.42 4.008 0 .907 1.745 1.452 3.42 1.675 4.859.866 5.53 3.868 9.355-4.272 25.12-5.963 11.533 25.301-17.036 25.301-17.036L136.839 0 0 67.763l10.36 93.638 3.436-.433v.014Z" fill="#4F728F" transform="translate(-11.422 -29.42)"/><path d="M180.237 92.353s-14.829-39.363-14.62-43.398c.21-4.05-40.325 4.273-40.325 4.273l25.748 8.503c15.443 5.097-6.423 19.158-6.423 19.158l28.331 12.748 7.289-1.284Z" fill="#4C416D" transform="translate(-11.422 -29.42)"/><path d="M43.872 218.845s-24.296-86.167-24.086-90.202c.21-4.05-1.285-32.618 3.42-22.146 1.718 3.826 10.752 51.497 29.63 53.619 11.088 1.229 4.05 29.742 5.614 35.746 3.868 14.87-5.139 29.797-5.139 29.797l-9.439-6.814Z" fill="#4C3D6A" transform="translate(-11.422 -29.42)"/><path d="M14.13 99.613c2.626-15.317 21.057-38.594 39.251-48.829 18.208-10.249 26.14-14.787 48.48-14.787 22.342 0-17.007-13.516-17.007-13.516L16.756 50.784S4.398 53.298 3.966 70.738L14.13 99.613Z" fill="#5191A6" transform="translate(-11.422 -29.42)"/></g></g></g><g transform="translate(83.335 -.001)"><mask id="mask-9" fill="#fff"><use xlink:href="#path-8"/></mask><g id="Group" mask="url('#mask-9')" fill-rule="nonzero"><g id="Path"><path d="M93.651 150.007c9.411 8.07 22.76 6.367 32.2 19.13 9.41 12.706-3.603 30.579-6.466 31.92-9.006 4.258-8.573 5.961-15.876 6.827-2.43.28-6.186.237-10.5.196-8.657-.098-19.618-.182-26.768 2.373-10.723 3.84-7.777 7.68-18.068 14.061-10.29 6.395-27.452 14.913-34.74 22.998-7.29 8.098-8.574 19.59-5.558 24.268 3.002 4.677 12.009 9.774 36.472 10.193 24.464.419 30.468 12.33 39.907 11.896 4.678-.223 3.253-5.32.558-12.343l.782 1.27s8.322-5.026 11.143-10.64c3.002-5.962 10.724-19.59 17.147-21.726 7.428-2.458 20.596-9.37 19.31-11.925-1.814-3.588-13.306-3.826-13.306-3.826s14.69-5.473 15.443-6.814c5.977-10.681 14.396-30.607 9.398-53.2-6.019-27.242-32.2-26.809-39.921-31.054-15.918-8.768-11.227-32.338-11.227-32.338s.852-5.963-3.435-6.814c-1.508-.294-2.639-.643-3.462-.643-1.522 0-1.955 1.201-1.676 6.186.419 7.652-4.23 28.946 8.657 40.005h-.014Z" fill="url('#linearGradient-10')" transform="translate(-6.356 -103.816)"/><path d="M85.594 282.797s8.309-5.027 11.143-10.64c3.002-5.963 10.724-19.59 17.147-21.727 7.428-2.458 20.596-9.37 19.31-11.925-1.814-3.574-13.306-3.826-13.306-3.826s14.69-5.473 15.443-6.814c5.977-10.681 14.173-20.176 6.186-41.931-5.166-14.033-33.05-31.892-40.773-36.15-15.932-8.756-12.469-33.61-12.469-33.61s0-7.233-4.3-8.099c-4.287-.838-2.57-.838-2.137 6.828.42 7.652-1.06 24.045 11.813 35.104 9.411 8.07 23.402 12.539 32.842 25.301 9.41 12.706 23.179 26.376 10.332 40.856-6.604 7.429-30.453 20.875-38.175 23.85-6.842 2.652-18.878 4.272-21.447 3.853-11.255-1.857-18.893-12.762-24.897-8.936-10.207 6.535 13.307 15.75 6.018 23.835-7.289 8.099-34.712 6.842-35.173 12.371-.419 5.11 1.299 8.085 25.748 8.49 24.464.419 25.916 14.661 35.355 14.242 9.44-.432-6.004-20.847-6.451-36.597-.447-15.75-18.892-18.292-18.892-18.292" fill="#4E567C" transform="translate(-6.356 -103.816)"/><path d="M55.741 224.29c6.842-8.936 9.425-9.787 16.295-11.072 4.636-.866 17.873-.307 28.89-1.34.698-.07 1.508 2.499 2.444 2.499.95 0-.126-4.915.921-5.097 1.033-.195 3.156 5.39 4.12 5.097.977-.293-1.285-5.348 0-5.725 1.284-.377 3.867 4.692 4.607 4.3.74-.39-1.452-4.3-.726-5.277.712-.978 1.34 1.466 1.466 1.396 11.897-6.395 16.616-16.03 17.035-23.123.42-7.233-8.154-17.454-8.154-17.454l-63.952-33.582s1.466-24.896 27.005-28.526c9.006-1.285-.935 14.019 9.467 32.338 5.376 9.467 18.46 7.736 30.998 15.946.852.559 2.235-.963 2.793-.53.559.419-1.396 1.87.782 3.63 2.192 1.76 3.142-1.187 3.952-.39.823.795-2.22 2.345 0 4.23 2.234 1.871 3.379-.642 4.133.293.754.95-1.536 2.08-.559 3.184 3.1 3.463 3.212 4.692 4.692 10.64 4.65 18.655 2.75 14.661 9.02 22.118 11.869 14.13-55.322 34.517-55.322 34.517l79.367-12.4-4.846-16.937L60.74 0 0 275.41s11.562-24.268 26.572-34.07c18.138-11.84 22.3-8.099 29.17-17.035v-.014Z" fill="#5DA7B5" transform="translate(-6.356 -103.816)"/><path d="m90.523 285.142-6.185-4.188s-4.105-15.905-6.284-20.917c-2.569-5.963-2.75-8.909-10.29-10.64-22.314-5.083-9.02-11.478-9.02-11.478s14.59 3.812 18.026 14.033c1.452 4.287 2.583 15.75 9.02 15.736 6.437 0 8.573-9.788 14.159-13.195 5.585-3.42 9.425-7.68 14.577-8.517 5.153-.866 18.878-.88 18.878-.88l-42.867 40.046h-.014Z" fill="#4C416D" transform="translate(-6.356 -103.816)"/><path d="M83.193 228.117c6.437-3.421 7.721-1.285 11.59-3.84 3.853-2.555-14.173-6.8-20.178-3.393-3.435 1.955-4.887 14.214-1.27 16.17 9.439 5.096 4.552-6.13 9.858-8.937Z" fill="#4E567C" transform="translate(-6.356 -103.816)"/></g></g></g></g></g></g><path d="M78.138 352.599c2.849-12.288 3.854-14.005-3.91-23.068-7.75-9.076-8.601-13.502-8.601-13.502s-.335 6.074 7.484 14.815c7.82 8.741.53 24.017 3.952 34.112 3.435 10.11 4.245 14.843 4.245 14.843s-1.034-8.978-2.486-15.43c-.474-2.122-1.843-6.813-.698-11.77h.014Z" id="Path-Copy-9" fill="#4F6486"/><path d="M180.349 217.463s11.505-.335 15.01-1.285c4.72-1.284 11.59-1.717 11.59-4.691l-7.4-2.165-11.674 4.05-.42 1.117-7.106 2.974Z" id="Path-Copy-10" fill="#4B2A5C"/><path d="M221.68 184.873c-10.473 8.42-25.232 13.209-31.739 16.616-8.154 4.273-3.002 10.654-2.136 12.343 7.708-2.178 23.165-8.517 33.023-16.616 16.868-13.823 24.017-37.044 21.866-37.463a.744.744 0 0 0-.083 0c-2.262 0-9.914 16.295-20.931 25.134v-.014Z" id="Path-Copy-11" fill="url('#linearGradient-11')"/><path d="M187.805 213.832c-3.17-4.887-2.318-7.01-2.318-7.01s3.435 2.975 9.44.839a85.51 85.51 0 0 0 26.6-14.48c11.142-8.95 18.85-23.85 18.85-23.85s-2.681 14.048-19.549 27.885c-9.858 8.099-25.315 14.438-33.023 16.616Z" id="Path-Copy-12" fill="#D3CBAF"/><path d="M155.871 199.255c0-1.564 1.285-2.849 2.877-2.849 1.591 0 2.876 1.271 2.876 2.849a2.862 2.862 0 0 1-2.876 2.862 2.862 2.862 0 0 1-2.877-2.862Z" id="Path-Copy-13" fill="#020408"/><path d="M160.158 197.886a.838.838 0 0 1-.838.838.838.838 0 1 1-.014-1.675.838.838 0 0 1 .852.837Z" id="Path-Copy-14" fill="#D5B8D8"/><g id="cube-(turned)" transform="translate(135.331)"><path id="Path-Copy-15" fill="#FE9B7C" d="m31.752.084 30.119 27.842L60.279 43.9 28.345 14.41 31.725.084z"/><path id="Path-Copy-16" fill="#D06868" d="M31.822 0 28.36 14.41 0 44.612 3.38 30.3z"/><path id="Path-Copy-17" fill="#A5597E" d="m28.443 14.326 31.934 29.49-28.443 30.3L0 44.613l28.443-30.3z"/></g></g></g></g></svg>